<mxfile host="Electron" agent="Mozilla/5.0 (Windows NT 10.0; Win64; x64) AppleWebKit/537.36 (KHTML, like Gecko) draw.io/24.7.8 Chrome/128.0.6613.36 Electron/32.0.1 Safari/537.36" version="24.7.8">
  <diagram name="第 1 页" id="iZmsxD1jbJdu7zAjmKk4">
    <mxGraphModel dx="1050" dy="629" grid="1" gridSize="10" guides="1" tooltips="1" connect="1" arrows="1" fold="1" page="1" pageScale="1" pageWidth="827" pageHeight="1169" math="0" shadow="0">
      <root>
        <mxCell id="0" />
        <mxCell id="1" parent="0" />
        <mxCell id="oqwCptziulDfvQ71O5ip-1" value="Client" style="swimlane;fontStyle=1;align=center;verticalAlign=top;childLayout=stackLayout;horizontal=1;startSize=26;horizontalStack=0;resizeParent=1;resizeParentMax=0;resizeLast=0;collapsible=1;marginBottom=0;whiteSpace=wrap;html=1;" parent="1" vertex="1">
          <mxGeometry x="334" y="290" width="160" height="34" as="geometry" />
        </mxCell>
        <mxCell id="oqwCptziulDfvQ71O5ip-6" value="Facade" style="swimlane;fontStyle=1;align=center;verticalAlign=top;childLayout=stackLayout;horizontal=1;startSize=26;horizontalStack=0;resizeParent=1;resizeParentMax=0;resizeLast=0;collapsible=1;marginBottom=0;whiteSpace=wrap;html=1;" parent="1" vertex="1">
          <mxGeometry x="334" y="440" width="160" height="52" as="geometry" />
        </mxCell>
        <mxCell id="oqwCptziulDfvQ71O5ip-9" value="+ wrapOperation(): void" style="text;strokeColor=none;fillColor=none;align=left;verticalAlign=top;spacingLeft=4;spacingRight=4;overflow=hidden;rotatable=0;points=[[0,0.5],[1,0.5]];portConstraint=eastwest;whiteSpace=wrap;html=1;" parent="oqwCptziulDfvQ71O5ip-6" vertex="1">
          <mxGeometry y="26" width="160" height="26" as="geometry" />
        </mxCell>
        <mxCell id="oqwCptziulDfvQ71O5ip-10" value="SystemB" style="swimlane;fontStyle=1;align=center;verticalAlign=top;childLayout=stackLayout;horizontal=1;startSize=26;horizontalStack=0;resizeParent=1;resizeParentMax=0;resizeLast=0;collapsible=1;marginBottom=0;whiteSpace=wrap;html=1;" parent="1" vertex="1">
          <mxGeometry x="334" y="620" width="160" height="52" as="geometry" />
        </mxCell>
        <mxCell id="oqwCptziulDfvQ71O5ip-13" value="+ OperationB(): void" style="text;strokeColor=none;fillColor=none;align=left;verticalAlign=top;spacingLeft=4;spacingRight=4;overflow=hidden;rotatable=0;points=[[0,0.5],[1,0.5]];portConstraint=eastwest;whiteSpace=wrap;html=1;" parent="oqwCptziulDfvQ71O5ip-10" vertex="1">
          <mxGeometry y="26" width="160" height="26" as="geometry" />
        </mxCell>
        <mxCell id="oqwCptziulDfvQ71O5ip-14" value="SystemA" style="swimlane;fontStyle=1;align=center;verticalAlign=top;childLayout=stackLayout;horizontal=1;startSize=26;horizontalStack=0;resizeParent=1;resizeParentMax=0;resizeLast=0;collapsible=1;marginBottom=0;whiteSpace=wrap;html=1;" parent="1" vertex="1">
          <mxGeometry x="120" y="620" width="160" height="52" as="geometry" />
        </mxCell>
        <mxCell id="oqwCptziulDfvQ71O5ip-15" value="+ OperationA(): void" style="text;strokeColor=none;fillColor=none;align=left;verticalAlign=top;spacingLeft=4;spacingRight=4;overflow=hidden;rotatable=0;points=[[0,0.5],[1,0.5]];portConstraint=eastwest;whiteSpace=wrap;html=1;" parent="oqwCptziulDfvQ71O5ip-14" vertex="1">
          <mxGeometry y="26" width="160" height="26" as="geometry" />
        </mxCell>
        <mxCell id="oqwCptziulDfvQ71O5ip-16" value="SystemC" style="swimlane;fontStyle=1;align=center;verticalAlign=top;childLayout=stackLayout;horizontal=1;startSize=26;horizontalStack=0;resizeParent=1;resizeParentMax=0;resizeLast=0;collapsible=1;marginBottom=0;whiteSpace=wrap;html=1;" parent="1" vertex="1">
          <mxGeometry x="550" y="620" width="160" height="52" as="geometry" />
        </mxCell>
        <mxCell id="oqwCptziulDfvQ71O5ip-17" value="+ OperationC(): void" style="text;strokeColor=none;fillColor=none;align=left;verticalAlign=top;spacingLeft=4;spacingRight=4;overflow=hidden;rotatable=0;points=[[0,0.5],[1,0.5]];portConstraint=eastwest;whiteSpace=wrap;html=1;" parent="oqwCptziulDfvQ71O5ip-16" vertex="1">
          <mxGeometry y="26" width="160" height="26" as="geometry" />
        </mxCell>
        <mxCell id="oqwCptziulDfvQ71O5ip-18" value="" style="endArrow=open;endFill=1;endSize=12;html=1;rounded=0;" parent="1" source="oqwCptziulDfvQ71O5ip-6" target="oqwCptziulDfvQ71O5ip-14" edge="1">
          <mxGeometry width="160" relative="1" as="geometry">
            <mxPoint x="350" y="570" as="sourcePoint" />
            <mxPoint x="510" y="570" as="targetPoint" />
          </mxGeometry>
        </mxCell>
        <mxCell id="oqwCptziulDfvQ71O5ip-19" value="" style="endArrow=open;endFill=1;endSize=12;html=1;rounded=0;" parent="1" source="oqwCptziulDfvQ71O5ip-6" target="oqwCptziulDfvQ71O5ip-10" edge="1">
          <mxGeometry width="160" relative="1" as="geometry">
            <mxPoint x="350" y="570" as="sourcePoint" />
            <mxPoint x="510" y="570" as="targetPoint" />
          </mxGeometry>
        </mxCell>
        <mxCell id="oqwCptziulDfvQ71O5ip-20" value="" style="endArrow=open;endFill=1;endSize=12;html=1;rounded=0;" parent="1" source="oqwCptziulDfvQ71O5ip-6" target="oqwCptziulDfvQ71O5ip-16" edge="1">
          <mxGeometry width="160" relative="1" as="geometry">
            <mxPoint x="350" y="570" as="sourcePoint" />
            <mxPoint x="510" y="570" as="targetPoint" />
          </mxGeometry>
        </mxCell>
        <mxCell id="oqwCptziulDfvQ71O5ip-21" value="" style="endArrow=open;endFill=1;endSize=12;html=1;rounded=0;dashed=1;" parent="1" source="oqwCptziulDfvQ71O5ip-1" target="oqwCptziulDfvQ71O5ip-6" edge="1">
          <mxGeometry width="160" relative="1" as="geometry">
            <mxPoint x="240" y="390" as="sourcePoint" />
            <mxPoint x="400" y="390" as="targetPoint" />
          </mxGeometry>
        </mxCell>
      </root>
    </mxGraphModel>
  </diagram>
</mxfile>
